<svg width="128" height="128" viewBox="0 0 128 128" fill="none" xmlns="http://www.w3.org/2000/svg">
<g clip-path="url(#clip0)">
<rect width="128" height="128" rx="15" fill="white"/>
<rect width="128" height="128" fill="url(#paint0_linear)"/>
<rect x="76.5" y="-19.5" width="75" height="71" stroke="white" stroke-opacity="0.25" stroke-width="25"/>
<circle cx="-5" cy="133" r="56.5" stroke="white" stroke-opacity="0.25" stroke-width="25"/>
<path d="M43.9847 50.523C45.2067 50.523 46.0993 50.2283 46.6627 49.639C47.2347 49.0497 47.5207 48.2437 47.5207 47.221C47.5207 46.753 47.447 46.3283 47.2997 45.947C47.161 45.557 46.9443 45.2277 46.6497 44.959C46.3637 44.6817 45.9997 44.4693 45.5577 44.322C45.1157 44.1747 44.5913 44.101 43.9847 44.101H41.5147V50.523H43.9847ZM43.9847 41.137C45.276 41.137 46.3897 41.2887 47.3257 41.592C48.2703 41.8953 49.046 42.32 49.6527 42.866C50.2593 43.4033 50.7057 44.0447 50.9917 44.79C51.2863 45.5353 51.4337 46.3457 51.4337 47.221C51.4337 48.1483 51.282 48.9977 50.9787 49.769C50.6753 50.5403 50.216 51.2033 49.6007 51.758C48.9853 52.3127 48.2097 52.746 47.2737 53.058C46.3377 53.3613 45.2413 53.513 43.9847 53.513H41.5147V60H37.6147V41.137H43.9847ZM60.0476 54.397C59.1723 54.4403 58.4443 54.5183 57.8636 54.631C57.2829 54.735 56.8193 54.8737 56.4726 55.047C56.1346 55.2203 55.8919 55.4197 55.7446 55.645C55.6059 55.8617 55.5366 56.1 55.5366 56.36C55.5366 56.88 55.6796 57.2483 55.9656 57.465C56.2603 57.6817 56.6676 57.79 57.1876 57.79C57.7856 57.79 58.3013 57.686 58.7346 57.478C59.1766 57.2613 59.6143 56.9277 60.0476 56.477V54.397ZM52.7416 48.456C53.5303 47.7453 54.4013 47.2167 55.3546 46.87C56.3079 46.5147 57.3393 46.337 58.4486 46.337C59.2459 46.337 59.9566 46.467 60.5806 46.727C61.2133 46.987 61.7463 47.351 62.1796 47.819C62.6216 48.2783 62.9596 48.8287 63.1936 49.47C63.4276 50.1113 63.5446 50.8133 63.5446 51.576V60H61.9066C61.5686 60 61.3086 59.9523 61.1266 59.857C60.9533 59.7617 60.8103 59.5623 60.6976 59.259L60.4116 58.401C60.0736 58.6957 59.7443 58.9557 59.4236 59.181C59.1116 59.4063 58.7866 59.597 58.4486 59.753C58.1106 59.9003 57.7466 60.013 57.3566 60.091C56.9753 60.169 56.5463 60.208 56.0696 60.208C55.4803 60.208 54.9429 60.13 54.4576 59.974C53.9723 59.818 53.5519 59.5883 53.1966 59.285C52.8499 58.973 52.5813 58.5873 52.3906 58.128C52.1999 57.6687 52.1046 57.14 52.1046 56.542C52.1046 56.048 52.2303 55.554 52.4816 55.06C52.7329 54.566 53.1619 54.1197 53.7686 53.721C54.3839 53.3137 55.1986 52.98 56.2126 52.72C57.2353 52.4513 58.5136 52.2997 60.0476 52.265V51.576C60.0476 50.7353 59.8699 50.12 59.5146 49.73C59.1593 49.3313 58.6479 49.132 57.9806 49.132C57.4866 49.132 57.0749 49.1927 56.7456 49.314C56.4163 49.4267 56.1259 49.5523 55.8746 49.691C55.6319 49.821 55.4023 49.9467 55.1856 50.068C54.9689 50.1807 54.7176 50.237 54.4316 50.237C54.1803 50.237 53.9679 50.1763 53.7946 50.055C53.6299 49.925 53.4913 49.7733 53.3786 49.6L52.7416 48.456ZM71.3373 52.798C72.0739 52.798 72.6156 52.6117 72.9623 52.239C73.3176 51.8663 73.4953 51.3853 73.4953 50.796C73.4953 50.1807 73.3176 49.6997 72.9623 49.353C72.6156 48.9977 72.0739 48.82 71.3373 48.82C70.6006 48.82 70.0589 48.9977 69.7123 49.353C69.3656 49.6997 69.1923 50.1807 69.1923 50.796C69.1923 51.3767 69.3656 51.8577 69.7123 52.239C70.0676 52.6117 70.6093 52.798 71.3373 52.798ZM74.7303 60.546C74.7303 60.312 74.6566 60.1213 74.5093 59.974C74.3619 59.8267 74.1626 59.7097 73.9113 59.623C73.6686 59.5363 73.3783 59.4757 73.0403 59.441C72.7023 59.3977 72.3426 59.3673 71.9613 59.35C71.5799 59.324 71.1856 59.3023 70.7783 59.285C70.3709 59.2677 69.9723 59.2373 69.5823 59.194C69.2789 59.376 69.0276 59.5927 68.8283 59.844C68.6376 60.0867 68.5423 60.364 68.5423 60.676C68.5423 60.8927 68.5899 61.092 68.6853 61.274C68.7893 61.456 68.9583 61.612 69.1923 61.742C69.4263 61.872 69.7339 61.9717 70.1153 62.041C70.4966 62.119 70.9733 62.158 71.5453 62.158C72.1346 62.158 72.6329 62.119 73.0403 62.041C73.4476 61.963 73.7769 61.8503 74.0283 61.703C74.2796 61.5643 74.4573 61.3953 74.5613 61.196C74.6739 60.9967 74.7303 60.78 74.7303 60.546ZM78.2923 47.039V48.352C78.2923 48.56 78.2316 48.7247 78.1103 48.846C77.9976 48.9673 77.8069 49.0583 77.5383 49.119L76.4463 49.34C76.5936 49.7647 76.6673 50.2197 76.6673 50.705C76.6673 51.3723 76.5286 51.9747 76.2513 52.512C75.9826 53.0407 75.6099 53.4957 75.1333 53.877C74.6566 54.2497 74.0933 54.54 73.4433 54.748C72.7933 54.9473 72.0913 55.047 71.3373 55.047C70.8606 55.047 70.4143 55.008 69.9983 54.93C69.6343 55.1553 69.4523 55.4023 69.4523 55.671C69.4523 55.9223 69.5736 56.1043 69.8163 56.217C70.0676 56.3297 70.3926 56.412 70.7913 56.464C71.1986 56.5073 71.6579 56.5377 72.1693 56.555C72.6893 56.5637 73.2136 56.5897 73.7423 56.633C74.2796 56.6763 74.8039 56.7543 75.3153 56.867C75.8353 56.971 76.2946 57.1487 76.6933 57.4C77.1006 57.6427 77.4256 57.9677 77.6683 58.375C77.9196 58.7823 78.0453 59.3067 78.0453 59.948C78.0453 60.546 77.8979 61.1267 77.6033 61.69C77.3086 62.2533 76.8796 62.756 76.3163 63.198C75.7616 63.64 75.0769 63.9953 74.2623 64.264C73.4476 64.5327 72.5203 64.667 71.4803 64.667C70.4489 64.667 69.5519 64.5673 68.7893 64.368C68.0353 64.1773 67.4069 63.9173 66.9043 63.588C66.4103 63.2673 66.0419 62.8947 65.7993 62.47C65.5566 62.0453 65.4353 61.6033 65.4353 61.144C65.4353 60.546 65.6173 60.039 65.9813 59.623C66.3453 59.207 66.8479 58.8733 67.4893 58.622C67.1513 58.4313 66.8783 58.1843 66.6703 57.881C66.4709 57.569 66.3713 57.166 66.3713 56.672C66.3713 56.2733 66.5143 55.853 66.8003 55.411C67.0949 54.969 67.5456 54.6007 68.1523 54.306C67.4676 53.942 66.9259 53.4567 66.5273 52.85C66.1286 52.2347 65.9293 51.5197 65.9293 50.705C65.9293 50.0377 66.0636 49.4353 66.3323 48.898C66.6096 48.3607 66.9909 47.9057 67.4763 47.533C67.9616 47.1517 68.5336 46.8613 69.1923 46.662C69.8509 46.4627 70.5659 46.363 71.3373 46.363C72.4813 46.363 73.4909 46.5883 74.3663 47.039H78.2923ZM88.4059 51.719C88.4059 51.3463 88.3539 50.991 88.2499 50.653C88.1545 50.315 87.9985 50.016 87.7819 49.756C87.5652 49.496 87.2922 49.2923 86.9629 49.145C86.6335 48.989 86.2392 48.911 85.7799 48.911C84.9219 48.911 84.2502 49.1537 83.7649 49.639C83.2795 50.1243 82.9632 50.8177 82.8159 51.719H88.4059ZM82.7639 53.851C82.8765 55.1077 83.2319 56.0263 83.8299 56.607C84.4365 57.1877 85.2252 57.478 86.1959 57.478C86.6899 57.478 87.1145 57.4217 87.4699 57.309C87.8339 57.1877 88.1502 57.0577 88.4189 56.919C88.6962 56.7717 88.9432 56.6417 89.1599 56.529C89.3852 56.4077 89.6062 56.347 89.8229 56.347C90.1002 56.347 90.3169 56.451 90.4729 56.659L91.5129 57.959C91.1315 58.401 90.7112 58.7693 90.2519 59.064C89.7925 59.35 89.3159 59.5797 88.8219 59.753C88.3279 59.9177 87.8295 60.0303 87.3269 60.091C86.8242 60.1603 86.3389 60.195 85.8709 60.195C84.9349 60.195 84.0595 60.0433 83.2449 59.74C82.4389 59.428 81.7325 58.973 81.1259 58.375C80.5279 57.7683 80.0555 57.0187 79.7089 56.126C79.3622 55.2333 79.1889 54.1977 79.1889 53.019C79.1889 52.109 79.3362 51.251 79.6309 50.445C79.9342 49.639 80.3675 48.937 80.9309 48.339C81.4942 47.741 82.1789 47.2687 82.9849 46.922C83.7909 46.5667 84.7009 46.389 85.7149 46.389C86.5729 46.389 87.3615 46.5277 88.0809 46.805C88.8089 47.0737 89.4329 47.468 89.9529 47.988C90.4815 48.508 90.8889 49.1493 91.1749 49.912C91.4695 50.666 91.6169 51.5283 91.6169 52.499C91.6169 52.7677 91.6039 52.9887 91.5779 53.162C91.5519 53.3353 91.5085 53.474 91.4479 53.578C91.3872 53.682 91.3049 53.7557 91.2009 53.799C91.0969 53.8337 90.9625 53.851 90.7979 53.851H82.7639ZM50.585 84.828V88H39.392V69.137H43.292V84.828H50.585ZM56.174 74.597V88H52.586V74.597H56.174ZM56.603 70.788C56.603 71.0913 56.5423 71.373 56.421 71.633C56.2997 71.893 56.135 72.1227 55.927 72.322C55.7277 72.5213 55.4893 72.6773 55.212 72.79C54.9433 72.9027 54.653 72.959 54.341 72.959C54.0463 72.959 53.7647 72.9027 53.496 72.79C53.236 72.6773 53.0063 72.5213 52.807 72.322C52.6077 72.1227 52.4473 71.893 52.326 71.633C52.2133 71.373 52.157 71.0913 52.157 70.788C52.157 70.4847 52.2133 70.203 52.326 69.943C52.4473 69.6743 52.6077 69.4403 52.807 69.241C53.0063 69.0417 53.236 68.8857 53.496 68.773C53.7647 68.6603 54.0463 68.604 54.341 68.604C54.653 68.604 54.9433 68.6603 55.212 68.773C55.4893 68.8857 55.7277 69.0417 55.927 69.241C56.135 69.4403 56.2997 69.6743 56.421 69.943C56.5423 70.203 56.603 70.4847 56.603 70.788ZM67.5689 77.353C67.4736 77.5003 67.3739 77.6087 67.2699 77.678C67.1746 77.7387 67.0402 77.769 66.8669 77.769C66.6936 77.769 66.5159 77.7257 66.3339 77.639C66.1519 77.5523 65.9482 77.4613 65.7229 77.366C65.4976 77.262 65.2376 77.1667 64.9429 77.08C64.6569 76.9933 64.3232 76.95 63.9419 76.95C63.3612 76.95 62.9106 77.0713 62.5899 77.314C62.2692 77.548 62.1089 77.86 62.1089 78.25C62.1089 78.5187 62.1999 78.744 62.3819 78.926C62.5639 79.108 62.8022 79.2683 63.0969 79.407C63.4002 79.537 63.7426 79.6627 64.1239 79.784C64.5052 79.8967 64.8952 80.0223 65.2939 80.161C65.7012 80.2997 66.0956 80.46 66.4769 80.642C66.8582 80.824 67.1962 81.0537 67.4909 81.331C67.7942 81.5997 68.0369 81.929 68.2189 82.319C68.4009 82.7003 68.4919 83.164 68.4919 83.71C68.4919 84.36 68.3706 84.9623 68.1279 85.517C67.8939 86.063 67.5472 86.5353 67.0879 86.934C66.6286 87.3327 66.0566 87.6447 65.3719 87.87C64.6872 88.0953 63.8986 88.208 63.0059 88.208C62.5466 88.208 62.0916 88.1647 61.6409 88.078C61.1902 88 60.7612 87.8873 60.3539 87.74C59.9466 87.584 59.5652 87.4063 59.2099 87.207C58.8546 87.0077 58.5469 86.791 58.2869 86.557L59.1189 85.218C59.2142 85.062 59.3312 84.9407 59.4699 84.854C59.6172 84.7673 59.8036 84.724 60.0289 84.724C60.2456 84.724 60.4449 84.7803 60.6269 84.893C60.8089 84.997 61.0126 85.114 61.2379 85.244C61.4632 85.3653 61.7276 85.4823 62.0309 85.595C62.3429 85.699 62.7286 85.751 63.1879 85.751C63.5346 85.751 63.8336 85.712 64.0849 85.634C64.3362 85.556 64.5399 85.452 64.6959 85.322C64.8519 85.1833 64.9646 85.0317 65.0339 84.867C65.1119 84.6937 65.1509 84.516 65.1509 84.334C65.1509 84.0393 65.0556 83.801 64.8649 83.619C64.6829 83.4283 64.4402 83.2637 64.1369 83.125C63.8422 82.9863 63.4999 82.8607 63.1099 82.748C62.7199 82.6353 62.3212 82.5097 61.9139 82.371C61.5152 82.2323 61.1209 82.0677 60.7309 81.877C60.3496 81.6863 60.0072 81.448 59.7039 81.162C59.4092 80.8673 59.1666 80.5077 58.9759 80.083C58.7939 79.6583 58.7029 79.1427 58.7029 78.536C58.7029 77.9813 58.8112 77.457 59.0279 76.963C59.2446 76.4603 59.5696 76.0183 60.0029 75.637C60.4362 75.2557 60.9736 74.9523 61.6149 74.727C62.2649 74.5017 63.0146 74.389 63.8639 74.389C64.8172 74.389 65.6839 74.545 66.4639 74.857C67.2439 75.169 67.8852 75.5763 68.3879 76.079L67.5689 77.353ZM75.3659 88.208C74.7592 88.208 74.2219 88.1213 73.7539 87.948C73.2859 87.766 72.8915 87.5103 72.5709 87.181C72.2502 86.8517 72.0075 86.453 71.8429 85.985C71.6782 85.517 71.5959 84.9883 71.5959 84.399V77.171H70.3349C70.1442 77.171 69.9795 77.1103 69.8409 76.989C69.7109 76.8677 69.6459 76.6857 69.6459 76.443V75.039L71.7909 74.649L72.5189 71.178C72.6142 70.788 72.8785 70.593 73.3119 70.593H75.1839V74.675H78.6419V77.171H75.1839V84.165C75.1839 84.5377 75.2705 84.8323 75.4439 85.049C75.6259 85.2657 75.8815 85.374 76.2109 85.374C76.3842 85.374 76.5315 85.3567 76.6529 85.322C76.7742 85.2787 76.8782 85.2353 76.9649 85.192C77.0515 85.14 77.1295 85.0967 77.1989 85.062C77.2769 85.0187 77.3549 84.997 77.4329 84.997C77.5369 84.997 77.6235 85.023 77.6929 85.075C77.7622 85.1183 77.8315 85.1963 77.9009 85.309L78.9799 87.025C78.4859 87.415 77.9269 87.7097 77.3029 87.909C76.6789 88.1083 76.0332 88.208 75.3659 88.208ZM88.897 77.353C88.8017 77.5003 88.702 77.6087 88.598 77.678C88.5027 77.7387 88.3684 77.769 88.195 77.769C88.0217 77.769 87.844 77.7257 87.662 77.639C87.48 77.5523 87.2764 77.4613 87.051 77.366C86.8257 77.262 86.5657 77.1667 86.271 77.08C85.985 76.9933 85.6514 76.95 85.27 76.95C84.6894 76.95 84.2387 77.0713 83.918 77.314C83.5974 77.548 83.437 77.86 83.437 78.25C83.437 78.5187 83.528 78.744 83.71 78.926C83.892 79.108 84.1304 79.2683 84.425 79.407C84.7284 79.537 85.0707 79.6627 85.452 79.784C85.8334 79.8967 86.2234 80.0223 86.622 80.161C87.0294 80.2997 87.4237 80.46 87.805 80.642C88.1864 80.824 88.5244 81.0537 88.819 81.331C89.1224 81.5997 89.365 81.929 89.547 82.319C89.729 82.7003 89.82 83.164 89.82 83.71C89.82 84.36 89.6987 84.9623 89.456 85.517C89.222 86.063 88.8754 86.5353 88.416 86.934C87.9567 87.3327 87.3847 87.6447 86.7 87.87C86.0154 88.0953 85.2267 88.208 84.334 88.208C83.8747 88.208 83.4197 88.1647 82.969 88.078C82.5184 88 82.0894 87.8873 81.682 87.74C81.2747 87.584 80.8934 87.4063 80.538 87.207C80.1827 87.0077 79.875 86.791 79.615 86.557L80.447 85.218C80.5424 85.062 80.6594 84.9407 80.798 84.854C80.9454 84.7673 81.1317 84.724 81.357 84.724C81.5737 84.724 81.773 84.7803 81.955 84.893C82.137 84.997 82.3407 85.114 82.566 85.244C82.7914 85.3653 83.0557 85.4823 83.359 85.595C83.671 85.699 84.0567 85.751 84.516 85.751C84.8627 85.751 85.1617 85.712 85.413 85.634C85.6644 85.556 85.868 85.452 86.024 85.322C86.18 85.1833 86.2927 85.0317 86.362 84.867C86.44 84.6937 86.479 84.516 86.479 84.334C86.479 84.0393 86.3837 83.801 86.193 83.619C86.011 83.4283 85.7684 83.2637 85.465 83.125C85.1704 82.9863 84.828 82.8607 84.438 82.748C84.048 82.6353 83.6494 82.5097 83.242 82.371C82.8434 82.2323 82.449 82.0677 82.059 81.877C81.6777 81.6863 81.3354 81.448 81.032 81.162C80.7374 80.8673 80.4947 80.5077 80.304 80.083C80.122 79.6583 80.031 79.1427 80.031 78.536C80.031 77.9813 80.1394 77.457 80.356 76.963C80.5727 76.4603 80.8977 76.0183 81.331 75.637C81.7644 75.2557 82.3017 74.9523 82.943 74.727C83.593 74.5017 84.3427 74.389 85.192 74.389C86.1454 74.389 87.012 74.545 87.792 74.857C88.572 75.169 89.2134 75.5763 89.716 76.079L88.897 77.353Z" fill="white"/>
<path d="M20.3646 111.55C20.6412 111.55 20.8846 111.513 21.0946 111.44C21.3079 111.367 21.4862 111.265 21.6296 111.135C21.7762 111.002 21.8862 110.843 21.9596 110.66C22.0329 110.477 22.0696 110.275 22.0696 110.055C22.0696 109.598 21.9279 109.242 21.6446 108.985C21.3646 108.728 20.9379 108.6 20.3646 108.6H19.2146V111.55H20.3646ZM20.3646 107.835C20.8179 107.835 21.2112 107.888 21.5446 107.995C21.8812 108.098 22.1596 108.247 22.3796 108.44C22.5996 108.633 22.7629 108.867 22.8696 109.14C22.9796 109.413 23.0346 109.718 23.0346 110.055C23.0346 110.388 22.9762 110.693 22.8596 110.97C22.7429 111.247 22.5712 111.485 22.3446 111.685C22.1212 111.885 21.8429 112.042 21.5096 112.155C21.1796 112.265 20.7979 112.32 20.3646 112.32H19.2146V115H18.2496V107.835H20.3646ZM31.1124 112.34L29.9874 109.425C29.9541 109.338 29.9191 109.238 29.8824 109.125C29.8457 109.008 29.8107 108.885 29.7774 108.755C29.7074 109.025 29.6357 109.25 29.5624 109.43L28.4374 112.34H31.1124ZM33.1324 115H32.3824C32.2957 115 32.2257 114.978 32.1724 114.935C32.1191 114.892 32.0791 114.837 32.0524 114.77L31.3824 113.04H28.1674L27.4974 114.77C27.4774 114.83 27.4391 114.883 27.3824 114.93C27.3257 114.977 27.2557 115 27.1724 115H26.4224L29.2874 107.835H30.2674L33.1324 115ZM43.2594 111.555V114.305C42.8994 114.565 42.5144 114.76 42.1044 114.89C41.6977 115.017 41.2511 115.08 40.7644 115.08C40.1877 115.08 39.6677 114.992 39.2044 114.815C38.7411 114.635 38.3444 114.385 38.0144 114.065C37.6877 113.742 37.4361 113.355 37.2594 112.905C37.0827 112.455 36.9944 111.96 36.9944 111.42C36.9944 110.873 37.0794 110.375 37.2494 109.925C37.4227 109.475 37.6677 109.09 37.9844 108.77C38.3011 108.447 38.6861 108.197 39.1394 108.02C39.5927 107.843 40.0994 107.755 40.6594 107.755C40.9427 107.755 41.2061 107.777 41.4494 107.82C41.6927 107.86 41.9177 107.92 42.1244 108C42.3311 108.077 42.5227 108.172 42.6994 108.285C42.8761 108.395 43.0411 108.52 43.1944 108.66L42.9194 109.1C42.8761 109.167 42.8194 109.21 42.7494 109.23C42.6827 109.247 42.6077 109.23 42.5244 109.18C42.4444 109.133 42.3527 109.077 42.2494 109.01C42.1461 108.943 42.0194 108.88 41.8694 108.82C41.7227 108.757 41.5477 108.703 41.3444 108.66C41.1444 108.617 40.9061 108.595 40.6294 108.595C40.2261 108.595 39.8611 108.662 39.5344 108.795C39.2077 108.925 38.9294 109.113 38.6994 109.36C38.4694 109.603 38.2927 109.9 38.1694 110.25C38.0461 110.597 37.9844 110.987 37.9844 111.42C37.9844 111.87 38.0477 112.273 38.1744 112.63C38.3044 112.983 38.4877 113.285 38.7244 113.535C38.9644 113.782 39.2544 113.97 39.5944 114.1C39.9344 114.23 40.3161 114.295 40.7394 114.295C41.0727 114.295 41.3677 114.258 41.6244 114.185C41.8844 114.108 42.1377 114.003 42.3844 113.87V112.295H41.2694C41.2061 112.295 41.1544 112.277 41.1144 112.24C41.0777 112.203 41.0594 112.158 41.0594 112.105V111.555H43.2594ZM52.7141 114.21L52.7091 115H48.2941V107.835H52.7091V108.625H49.2641V111.005H52.0541V111.765H49.2641V114.21H52.7141ZM71.1792 107.835V115H70.3292V109.735C70.3292 109.665 70.3308 109.59 70.3342 109.51C70.3408 109.43 70.3475 109.348 70.3542 109.265L67.8942 113.745C67.8175 113.895 67.7008 113.97 67.5442 113.97H67.4042C67.2475 113.97 67.1308 113.895 67.0542 113.745L64.5442 109.245C64.5642 109.422 64.5742 109.585 64.5742 109.735V115H63.7242V107.835H64.4392C64.5258 107.835 64.5925 107.843 64.6392 107.86C64.6858 107.877 64.7308 107.923 64.7742 108L67.2492 112.41C67.2892 112.49 67.3275 112.573 67.3642 112.66C67.4042 112.747 67.4408 112.835 67.4742 112.925C67.5075 112.835 67.5425 112.747 67.5792 112.66C67.6158 112.57 67.6558 112.485 67.6992 112.405L70.1292 108C70.1692 107.923 70.2125 107.877 70.2592 107.86C70.3092 107.843 70.3775 107.835 70.4642 107.835H71.1792ZM80.3663 112.34L79.2413 109.425C79.208 109.338 79.173 109.238 79.1363 109.125C79.0996 109.008 79.0646 108.885 79.0313 108.755C78.9613 109.025 78.8896 109.25 78.8163 109.43L77.6913 112.34H80.3663ZM82.3863 115H81.6363C81.5496 115 81.4796 114.978 81.4263 114.935C81.373 114.892 81.333 114.837 81.3063 114.77L80.6363 113.04H77.4213L76.7513 114.77C76.7313 114.83 76.693 114.883 76.6363 114.93C76.5796 114.977 76.5096 115 76.4263 115H75.6763L78.5413 107.835H79.5213L82.3863 115ZM92.5133 111.555V114.305C92.1533 114.565 91.7683 114.76 91.3583 114.89C90.9517 115.017 90.505 115.08 90.0183 115.08C89.4417 115.08 88.9217 114.992 88.4583 114.815C87.995 114.635 87.5983 114.385 87.2683 114.065C86.9417 113.742 86.69 113.355 86.5133 112.905C86.3367 112.455 86.2483 111.96 86.2483 111.42C86.2483 110.873 86.3333 110.375 86.5033 109.925C86.6767 109.475 86.9217 109.09 87.2383 108.77C87.555 108.447 87.94 108.197 88.3933 108.02C88.8467 107.843 89.3533 107.755 89.9133 107.755C90.1967 107.755 90.46 107.777 90.7033 107.82C90.9467 107.86 91.1717 107.92 91.3783 108C91.585 108.077 91.7767 108.172 91.9533 108.285C92.13 108.395 92.295 108.52 92.4483 108.66L92.1733 109.1C92.13 109.167 92.0733 109.21 92.0033 109.23C91.9367 109.247 91.8617 109.23 91.7783 109.18C91.6983 109.133 91.6067 109.077 91.5033 109.01C91.4 108.943 91.2733 108.88 91.1233 108.82C90.9767 108.757 90.8017 108.703 90.5983 108.66C90.3983 108.617 90.16 108.595 89.8833 108.595C89.48 108.595 89.115 108.662 88.7883 108.795C88.4617 108.925 88.1833 109.113 87.9533 109.36C87.7233 109.603 87.5467 109.9 87.4233 110.25C87.3 110.597 87.2383 110.987 87.2383 111.42C87.2383 111.87 87.3017 112.273 87.4283 112.63C87.5583 112.983 87.7417 113.285 87.9783 113.535C88.2183 113.782 88.5083 113.97 88.8483 114.1C89.1883 114.23 89.57 114.295 89.9933 114.295C90.3267 114.295 90.6217 114.258 90.8783 114.185C91.1383 114.108 91.3917 114.003 91.6383 113.87V112.295H90.5233C90.46 112.295 90.4083 112.277 90.3683 112.24C90.3317 112.203 90.3133 112.158 90.3133 112.105V111.555H92.5133ZM98.518 115H97.548V107.835H98.518V115ZM108.931 113.52C108.984 113.52 109.031 113.542 109.071 113.585L109.456 114C109.162 114.34 108.806 114.605 108.386 114.795C107.969 114.985 107.464 115.08 106.871 115.08C106.357 115.08 105.891 114.992 105.471 114.815C105.051 114.635 104.692 114.385 104.396 114.065C104.099 113.742 103.869 113.355 103.706 112.905C103.542 112.455 103.461 111.96 103.461 111.42C103.461 110.88 103.546 110.385 103.716 109.935C103.886 109.485 104.124 109.098 104.431 108.775C104.741 108.452 105.111 108.202 105.541 108.025C105.971 107.845 106.446 107.755 106.966 107.755C107.476 107.755 107.926 107.837 108.316 108C108.706 108.163 109.049 108.385 109.346 108.665L109.026 109.11C109.006 109.143 108.979 109.172 108.946 109.195C108.916 109.215 108.874 109.225 108.821 109.225C108.761 109.225 108.687 109.193 108.601 109.13C108.514 109.063 108.401 108.99 108.261 108.91C108.121 108.83 107.946 108.758 107.736 108.695C107.526 108.628 107.267 108.595 106.961 108.595C106.591 108.595 106.252 108.66 105.946 108.79C105.639 108.917 105.374 109.102 105.151 109.345C104.931 109.588 104.759 109.885 104.636 110.235C104.512 110.585 104.451 110.98 104.451 111.42C104.451 111.867 104.514 112.265 104.641 112.615C104.771 112.965 104.946 113.262 105.166 113.505C105.389 113.745 105.651 113.928 105.951 114.055C106.254 114.182 106.581 114.245 106.931 114.245C107.144 114.245 107.336 114.233 107.506 114.21C107.679 114.183 107.837 114.143 107.981 114.09C108.127 114.037 108.262 113.97 108.386 113.89C108.512 113.807 108.637 113.708 108.761 113.595C108.817 113.545 108.874 113.52 108.931 113.52Z" fill="white"/>
</g>
<defs>
<linearGradient id="paint0_linear" x1="128" y1="0" x2="0" y2="128" gradientUnits="userSpaceOnUse">
<stop stop-color="#F93BC7"/>
<stop offset="1" stop-color="#FA2E88"/>
</linearGradient>
<clipPath id="clip0">
<rect width="128" height="128" rx="15" fill="white"/>
</clipPath>
</defs>
</svg>
